<?xml version="1.0" encoding="UTF-8"?>

<!DOCTYPE svg PUBLIC '-//W3C//DTD SVG 1.0//EN' 'http://www.w3.org/TR/2001/REC-SVG-20010904/DTD/svg10.dtd'>
<svg style="fill-opacity:1; color-rendering:auto; color-interpolation:auto; text-rendering:auto; stroke:black; stroke-linecap:square; stroke-miterlimit:10; shape-rendering:auto; stroke-opacity:1; fill:black; stroke-dasharray:none; font-weight:normal; stroke-width:1; font-family:&apos;Dialog&apos;; font-style:normal; stroke-linejoin:miter; font-size:12; stroke-dashoffset:0; image-rendering:auto;" xmlns="http://www.w3.org/2000/svg" width="400" xmlns:xlink="http://www.w3.org/1999/xlink" height="400">
  <!--Generated by the Batik Graphics2D SVG Generator-->
  <defs id="genericDefs" />
  <g>
    <g style="fill:rgb(64,128,0); fill-opacity:0.6; stroke-opacity:0.6; stroke:rgb(64,128,0);">
      <polygon style="stroke:none;" points=" 350 100 342 138 321 171 288 192 250 200 212 192 179 171 157 138 150 100 157 62 179 29 212 8 250 0 288 8 321 29 342 62" />
    </g>
    <g>
      <polygon style="fill:none;" points=" 350 100 342 138 321 171 288 192 250 200 212 192 179 171 157 138 150 100 157 62 179 29 212 8 250 0 288 8 321 29 342 62" />
    </g>
    <g style="fill:rgb(0,64,0); fill-opacity:0.6; stroke-opacity:0.6; stroke:rgb(0,64,0);">
      <polygon style="stroke:none;" points=" 305 177 298 211 279 240 250 259 216 266 181 259 152 240 133 211 126 177 133 143 152 113 181 94 216 87 250 94 279 113 298 143" />
    </g>
    <g>
      <polygon style="fill:none;" points=" 305 177 298 211 279 240 250 259 216 266 181 259 152 240 133 211 126 177 133 143 152 113 181 94 216 87 250 94 279 113 298 143" />
    </g>
  </g>
</svg>
