<?xml version="1.0" encoding="UTF-8"?>

<!DOCTYPE svg PUBLIC '-//W3C//DTD SVG 1.0//EN' 'http://www.w3.org/TR/2001/REC-SVG-20010904/DTD/svg10.dtd'>
<svg style="fill-opacity:1; color-rendering:auto; color-interpolation:auto; text-rendering:auto; stroke:black; stroke-linecap:square; stroke-miterlimit:10; shape-rendering:auto; stroke-opacity:1; fill:black; stroke-dasharray:none; font-weight:normal; stroke-width:1; font-family:&apos;sansserif&apos;; font-style:normal; stroke-linejoin:miter; font-size:12; stroke-dashoffset:0; image-rendering:auto;" xmlns="http://www.w3.org/2000/svg" width="636" xmlns:xlink="http://www.w3.org/1999/xlink" height="466">
  <!--Generated by the Batik Graphics2D SVG Generator-->
  <defs id="genericDefs" />
  <g>
    <g style="fill:white; stroke:white;">
      <rect x="0" y="0" width="636" style="stroke:none;" height="466" />
    </g>
    <g style="fill:rgb(191,0,64); fill-opacity:0.6; stroke-opacity:0.6; stroke:rgb(191,0,64);">
      <polygon style="stroke:none;" points=" 236 153 235 156 234 159 233 162 231 165 228 167 225 168 222 169 219 170 216 169 213 168 210 167 208 165 206 162 204 159 203 156 203 153 203 150 204 147 206 144 208 142 210 140 213 138 216 137 219 137 222 137 225 138 228 140 231 142 233 144 234 147 235 150" />
    </g>
    <g style="fill:blue; stroke:blue;">
      <polygon style="fill:none;" points=" 236 153 235 156 234 159 233 162 231 165 228 167 225 168 222 169 219 170 216 169 213 168 210 167 208 165 206 162 204 159 203 156 203 153 203 150 204 147 206 144 208 142 210 140 213 138 216 137 219 137 222 137 225 138 228 140 231 142 233 144 234 147 235 150" />
    </g>
    <g style="fill:rgb(128,191,0); fill-opacity:0.6; stroke-opacity:0.6; stroke:rgb(128,191,0);">
      <polygon style="stroke:none;" points=" 225 124 224 132 222 139 219 146 214 151 208 156 201 160 194 162 187 163 179 162 172 160 165 156 160 151 155 146 151 139 149 132 148 124 149 117 151 110 155 103 160 97 165 93 172 89 179 87 187 86 194 87 201 89 208 93 214 97 219 103 222 110 224 117" />
    </g>
    <g style="fill:blue; stroke:blue;">
      <polygon style="fill:none;" points=" 225 124 224 132 222 139 219 146 214 151 208 156 201 160 194 162 187 163 179 162 172 160 165 156 160 151 155 146 151 139 149 132 148 124 149 117 151 110 155 103 160 97 165 93 172 89 179 87 187 86 194 87 201 89 208 93 214 97 219 103 222 110 224 117" />
    </g>
    <g style="fill:rgb(64,128,0); fill-opacity:0.6; stroke-opacity:0.6; stroke:rgb(64,128,0);">
      <polygon style="stroke:none;" points=" 205 177 204 186 202 194 198 202 192 209 185 214 178 219 169 221 161 222 152 221 143 219 136 214 129 209 123 202 119 194 117 186 116 177 117 169 119 160 123 152 129 146 136 140 143 136 152 134 161 133 169 134 178 136 185 140 192 146 198 152 202 160 204 169" />
    </g>
    <g style="fill:blue; stroke:blue;">
      <polygon style="fill:none;" points=" 205 177 204 186 202 194 198 202 192 209 185 214 178 219 169 221 161 222 152 221 143 219 136 214 129 209 123 202 119 194 117 186 116 177 117 169 119 160 123 152 129 146 136 140 143 136 152 134 161 133 169 134 178 136 185 140 192 146 198 152 202 160 204 169" />
    </g>
    <g style="fill:rgb(0,64,0); fill-opacity:0.902; stroke-opacity:0.902; stroke:rgb(0,64,0);">
      <polygon style="stroke:none;" points=" 315 233 313 249 308 264 301 278 291 291 278 301 264 308 249 313 233 315 217 313 202 308 188 301 175 291 165 278 158 264 153 249 151 233 153 217 158 202 165 188 175 175 188 165 202 158 217 153 233 151 249 153 264 158 278 165 291 175 301 188 308 202 313 217" />
    </g>
    <g style="fill:rgb(0,230,230); stroke:rgb(0,230,230);">
      <polygon style="fill:none;" points=" 315 233 313 249 308 264 301 278 291 291 278 301 264 308 249 313 233 315 217 313 202 308 188 301 175 291 165 278 158 264 153 249 151 233 153 217 158 202 165 188 175 175 188 165 202 158 217 153 233 151 249 153 264 158 278 165 291 175 301 188 308 202 313 217" />
      <polygon style="fill:none; stroke:lime;" points=" 204 158 203 156 203 153 203 150 204 147 206 144 208 142 210 140 213 138 216 137 219 137 222 137 223 137 222 139 219 146 214 151 208 156" />
      <polygon style="fill:none; stroke:lime;" points=" 150 134 152 134 161 133 169 134 178 136 185 140 192 146 198 152 202 160 201 160 194 162 187 163 179 162 172 160 165 156 160 151 155 146 151 139" />
      <polygon style="fill:none; stroke:lime;" points=" 203 157 217 153 233 151 235 152 236 153 235 156 234 159 233 162 231 165 228 167 225 168 222 169 219 170 216 169 213 168 210 167 208 165 206 162 204 159" />
    </g>
    <g style="fill:rgb(204,204,204); fill-opacity:0.702; stroke-opacity:0.702; stroke:rgb(204,204,204);">
      <polygon style="stroke:none;" points=" 194 162 202 158 209 156 208 156 201 160 194 162" />
    </g>
    <g style="fill:lime; stroke:lime;">
      <polygon style="fill:none;" points=" 153 221 153 217 158 202 165 188 175 175 188 165 201 158 202 160 204 169 205 177 204 186 202 194 198 202 192 209 185 214 178 219 169 221 161 222" />
    </g>
    <g style="fill:rgb(204,204,204); fill-opacity:0.702; stroke-opacity:0.702; stroke:rgb(204,204,204);">
      <polygon style="stroke:none;" points=" 203 157 209 156 208 156 204 158" />
      <polygon style="stroke:none;" points=" 194 162 201 158 202 160 201 160 194 162" />
    </g>
    <g style="fill:blue; stroke:blue;">
      <text xml:space="preserve" x="10" y="20" style="stroke:none;">cost: 2,976</text>
    </g>
  </g>
</svg>
