<?xml version="1.0" encoding="UTF-8"?>

<!DOCTYPE svg PUBLIC '-//W3C//DTD SVG 1.0//EN' 'http://www.w3.org/TR/2001/REC-SVG-20010904/DTD/svg10.dtd'>
<svg style="fill-opacity:1; color-rendering:auto; color-interpolation:auto; text-rendering:auto; stroke:black; stroke-linecap:square; stroke-miterlimit:10; shape-rendering:auto; stroke-opacity:1; fill:black; stroke-dasharray:none; font-weight:normal; stroke-width:1; font-family:&apos;sansserif&apos;; font-style:normal; stroke-linejoin:miter; font-size:12; stroke-dashoffset:0; image-rendering:auto;" xmlns="http://www.w3.org/2000/svg" width="700" xmlns:xlink="http://www.w3.org/1999/xlink" height="480">
  <!--Generated by the Batik Graphics2D SVG Generator-->
  <defs id="genericDefs" />
  <g>
    <g style="fill:white; stroke:white;">
      <rect x="0" y="0" width="700" style="stroke:none;" height="480" />
    </g>
    <g style="fill:rgb(191,0,64); fill-opacity:0.6; stroke-opacity:0.6; stroke:rgb(191,0,64);">
      <polygon style="stroke:none;" points=" 236 153 236 156 235 159 234 162 232 164 229 167 226 168 223 169 220 169 216 169 213 168 210 167 208 164 206 162 204 159 203 156 203 153 203 149 204 146 206 143 208 141 210 139 213 137 216 136 220 136 223 136 226 137 229 139 232 141 234 143 235 146 236 149" />
    </g>
    <g style="fill:blue; stroke:blue;">
      <polygon style="fill:none;" points=" 236 153 236 156 235 159 234 162 232 164 229 167 226 168 223 169 220 169 216 169 213 168 210 167 208 164 206 162 204 159 203 156 203 153 203 149 204 146 206 143 208 141 210 139 213 137 216 136 220 136 223 136 226 137 229 139 232 141 234 143 235 146 236 149" />
    </g>
    <g style="fill:rgb(128,191,0); fill-opacity:0.6; stroke-opacity:0.6; stroke:rgb(128,191,0);">
      <polygon style="stroke:none;" points=" 231 129 230 136 228 144 224 150 219 156 214 161 207 165 199 167 192 168 184 167 177 165 170 161 164 156 159 150 155 144 153 136 152 129 153 121 155 113 159 107 164 101 170 96 177 92 184 90 192 89 199 90 207 92 214 96 219 101 224 107 228 113 230 121" />
    </g>
    <g style="fill:blue; stroke:blue;">
      <polygon style="fill:none;" points=" 231 129 230 136 228 144 224 150 219 156 214 161 207 165 199 167 192 168 184 167 177 165 170 161 164 156 159 150 155 144 153 136 152 129 153 121 155 113 159 107 164 101 170 96 177 92 184 90 192 89 199 90 207 92 214 96 219 101 224 107 228 113 230 121" />
    </g>
    <g style="fill:rgb(64,128,0); fill-opacity:0.6; stroke-opacity:0.6; stroke:rgb(64,128,0);">
      <polygon style="stroke:none;" points=" 215 183 214 192 211 201 207 209 201 216 194 222 186 226 178 229 169 229 160 229 151 226 143 222 136 216 131 209 126 201 124 192 123 183 124 174 126 166 131 158 136 151 143 145 151 141 160 138 169 137 178 138 186 141 194 145 201 151 207 158 211 166 214 174" />
    </g>
    <g style="fill:blue; stroke:blue;">
      <polygon style="fill:none;" points=" 215 183 214 192 211 201 207 209 201 216 194 222 186 226 178 229 169 229 160 229 151 226 143 222 136 216 131 209 126 201 124 192 123 183 124 174 126 166 131 158 136 151 143 145 151 141 160 138 169 137 178 138 186 141 194 145 201 151 207 158 211 166 214 174" />
    </g>
    <g style="fill:rgb(0,64,0); fill-opacity:0.902; stroke-opacity:0.902; stroke:rgb(0,64,0);">
      <polygon style="stroke:none;" points=" 324 240 322 256 318 272 310 287 299 299 287 310 272 318 256 322 240 324 224 322 208 318 193 310 181 299 170 287 162 272 158 256 156 240 158 224 162 208 170 193 181 181 193 170 208 162 224 158 240 156 256 158 272 162 287 170 299 181 310 193 318 208 322 224" />
    </g>
    <g style="fill:rgb(0,230,230); stroke:rgb(0,230,230);">
      <polygon style="fill:none;" points=" 324 240 322 256 318 272 310 287 299 299 287 310 272 318 256 322 240 324 224 322 208 318 193 310 181 299 170 287 162 272 158 256 156 240 158 224 162 208 170 193 181 181 193 170 208 162 224 158 240 156 256 158 272 162 287 170 299 181 310 193 318 208 322 224" />
      <polygon style="fill:none; stroke:lime;" points=" 208 164 206 162 204 159 203 156 203 153 203 149 204 146 206 143 208 141 210 139 213 137 216 136 220 136 223 136 226 137 229 139 229 139 228 144 224 150 219 156 214 161" />
    </g>
    <g style="fill:rgb(204,204,204); fill-opacity:0.702; stroke-opacity:0.702; stroke:rgb(204,204,204);">
      <polygon style="stroke:none;" points=" 203 153 207 158 211 166 212 167 210 167 208 164 206 162 204 159 203 156" />
    </g>
    <g style="fill:lime; stroke:lime;">
      <polygon style="fill:none;" points=" 154 140 160 138 169 137 178 138 186 141 194 145 201 151 207 158 210 163 207 165 199 167 192 168 184 167 177 165 170 161 164 156 159 150 155 144" />
      <polygon style="fill:none;" points=" 207 163 208 162 224 158 236 156 235 159 234 162 232 164 229 167 226 168 223 169 220 169 216 169 213 168 210 167 208 164" />
    </g>
    <g style="fill:rgb(204,204,204); fill-opacity:0.702; stroke-opacity:0.702; stroke:rgb(204,204,204);">
      <polygon style="stroke:none;" points=" 199 167 208 162 215 160 214 161 207 165 199 167" />
    </g>
    <g style="fill:lime; stroke:lime;">
      <polygon style="fill:none;" points=" 157 228 158 224 162 208 170 193 181 181 193 170 208 162 209 162 211 166 214 174 215 183 214 192 211 201 207 209 201 216 194 222 186 226 178 229 169 229 160 229" />
    </g>
    <g style="fill:rgb(204,204,204); fill-opacity:0.702; stroke-opacity:0.702; stroke:rgb(204,204,204);">
      <polygon style="stroke:none;" points=" 203 153 207 158 210 163 208 164 206 162 204 159 203 156" />
      <polygon style="stroke:none;" points=" 207 163 208 162 215 160 214 161 208 164" />
      <polygon style="stroke:none;" points=" 207 163 208 162 209 162 211 166 212 167 210 167 208 164" />
      <polygon style="stroke:none;" points=" 199 167 208 162 209 162 210 163 207 165 199 167" />
      <polygon style="stroke:none;" points=" 207 163 208 162 209 162 210 163 208 164" />
    </g>
    <g style="fill:blue; stroke:blue;">
      <text xml:space="preserve" x="10" y="20" style="stroke:none;">cost: 0,168</text>
    </g>
  </g>
</svg>
