<?xml version="1.0" encoding="UTF-8"?>

<!DOCTYPE svg PUBLIC '-//W3C//DTD SVG 1.0//EN' 'http://www.w3.org/TR/2001/REC-SVG-20010904/DTD/svg10.dtd'>
<svg style="fill-opacity:1; color-rendering:auto; color-interpolation:auto; text-rendering:auto; stroke:black; stroke-linecap:square; stroke-miterlimit:10; shape-rendering:auto; stroke-opacity:1; fill:black; stroke-dasharray:none; font-weight:normal; stroke-width:1; font-family:&apos;Dialog&apos;; font-style:normal; stroke-linejoin:miter; font-size:12; stroke-dashoffset:0; image-rendering:auto;" xmlns="http://www.w3.org/2000/svg" width="532" xmlns:xlink="http://www.w3.org/1999/xlink" height="400">
  <!--Generated by the Batik Graphics2D SVG Generator-->
  <defs id="genericDefs" />
  <g>
    <g style="fill:white; stroke:white;">
      <rect x="0" y="0" width="532" style="stroke:none;" height="400" />
    </g>
    <g style="fill:rgb(64,128,64); fill-opacity:0.6; stroke-opacity:0.6; stroke:rgb(64,128,64);">
      <polygon style="stroke:none;" points=" 185 256 180 280 166 300 146 314 122 319 99 314 78 300 65 280 60 256 65 233 78 212 99 199 122 194 146 199 166 212 180 233" />
    </g>
    <g style="fill:blue; stroke:blue;">
      <polygon style="fill:none;" points=" 185 256 180 280 166 300 146 314 122 319 99 314 78 300 65 280 60 256 65 233 78 212 99 199 122 194 146 199 166 212 180 233" />
    </g>
    <g style="fill:rgb(0,64,64); fill-opacity:0.6; stroke-opacity:0.6; stroke:rgb(0,64,64);">
      <polygon style="stroke:none;" points=" 172 146 167 173 152 195 130 210 103 215 77 210 55 195 40 173 34 146 40 120 55 98 77 83 103 78 130 83 152 98 167 120" />
    </g>
    <g style="fill:blue; stroke:blue;">
      <polygon style="fill:none;" points=" 172 146 167 173 152 195 130 210 103 215 77 210 55 195 40 173 34 146 40 120 55 98 77 83 103 78 130 83 152 98 167 120" />
    </g>
    <g style="fill:rgb(191,0,64); fill-opacity:0.6; stroke-opacity:0.6; stroke:rgb(191,0,64);">
      <polygon style="stroke:none;" points=" 265 99 260 124 246 145 225 159 201 164 176 159 155 145 141 124 136 99 141 74 155 53 176 39 201 34 225 39 246 53 260 74" />
    </g>
    <g style="fill:blue; stroke:blue;">
      <polygon style="fill:none;" points=" 265 99 260 124 246 145 225 159 201 164 176 159 155 145 141 124 136 99 141 74 155 53 176 39 201 34 225 39 246 53 260 74" />
    </g>
    <g style="fill:rgb(128,191,0); fill-opacity:0.6; stroke-opacity:0.6; stroke:rgb(128,191,0);">
      <polygon style="stroke:none;" points=" 359 176 354 201 340 222 319 236 294 241 270 236 249 222 235 201 230 176 235 152 249 131 270 117 294 112 319 117 340 131 354 152" />
    </g>
    <g style="fill:blue; stroke:blue;">
      <polygon style="fill:none;" points=" 359 176 354 201 340 222 319 236 294 241 270 236 249 222 235 201 230 176 235 152 249 131 270 117 294 112 319 117 340 131 354 152" />
    </g>
    <g style="fill:rgb(64,128,0); fill-opacity:0.6; stroke-opacity:0.6; stroke:rgb(64,128,0);">
      <polygon style="stroke:none;" points=" 308 289 303 315 288 338 265 353 238 358 212 353 189 338 174 315 169 289 174 262 189 239 212 224 238 219 265 224 288 239 303 262" />
    </g>
    <g style="fill:blue; stroke:blue;">
      <polygon style="fill:none;" points=" 308 289 303 315 288 338 265 353 238 358 212 353 189 338 174 315 169 289 174 262 189 239 212 224 238 219 265 224 288 239 303 262" />
    </g>
    <g style="fill:rgb(0,64,0); fill-opacity:0.902; stroke-opacity:0.902; stroke:rgb(0,64,0);">
      <polygon style="stroke:none;" points=" 282 200 275 231 258 258 231 275 200 282 169 275 142 258 125 231 118 200 125 169 142 142 169 125 200 118 231 125 258 142 275 169" />
    </g>
    <g style="fill:rgb(0,230,230); stroke:rgb(0,230,230);">
      <polygon style="fill:none;" points=" 282 200 275 231 258 258 231 275 200 282 169 275 142 258 125 231 118 200 125 169 142 142 169 125 200 118 231 125 258 142 275 169" />
      <polygon style="fill:none; stroke:lime;" points=" 81 211 99 199 122 194 146 199 130 210 103 215" />
      <polygon style="fill:none; stroke:lime;" points=" 170 155 155 145 141 124 136 99 138 88 152 98 167 120 172 146" />
      <polygon style="fill:none; stroke:lime;" points=" 235 152 235 152 249 131 260 123 260 124 246 145" />
      <polygon style="fill:none; stroke:lime;" points=" 170 295 169 289 174 262 183 249 185 256 180 280" />
      <polygon style="fill:none; stroke:lime;" points=" 248 221 265 224 287 239 270 236 249 222" />
      <polygon style="fill:none; stroke:lime;" points=" 180 278 169 275 142 258 125 231 118 200 119 195 122 194 146 199 166 212 180 233 185 256" />
      <polygon style="fill:none; stroke:lime;" points=" 121 212 118 200 125 169 142 142 168 125 172 146 167 173 152 195 130 210" />
      <polygon style="fill:none; stroke:lime;" points=" 150 137 169 125 200 118 231 125 251 138 246 145 225 159 201 164 176 159 155 145" />
      <polygon style="fill:none; stroke:lime;" points=" 272 236 270 236 249 222 235 201 230 176 235 152 246 135 258 142 275 169 282 200 275 231" />
      <polygon style="fill:none; stroke:lime;" points=" 171 276 174 262 189 239 212 224 238 219 265 224 275 231 258 258 231 275 200 282" />
    </g>
    <g style="fill:rgb(204,204,204); fill-opacity:0.702; stroke-opacity:0.702; stroke:rgb(204,204,204);">
      <polygon style="stroke:none;" points=" 119 195 122 194 146 199 130 210 121 212 118 200" />
      <polygon style="stroke:none;" points=" 168 125 172 146 170 155 155 145 150 137" />
      <polygon style="stroke:none;" points=" 235 152 235 152 246 135 251 138 246 145" />
      <polygon style="stroke:none;" points=" 180 278 171 276 174 262 183 249 185 256" />
      <polygon style="stroke:none;" points=" 248 221 265 224 275 231 272 236 270 236 249 222" />
    </g>
    <g style="fill:blue; stroke:blue;">
      <text xml:space="preserve" x="10" y="20" style="stroke:none;">cost: 5,783</text>
    </g>
  </g>
</svg>
