<?xml version="1.0" encoding="UTF-8"?>

<!DOCTYPE svg PUBLIC '-//W3C//DTD SVG 1.0//EN' 'http://www.w3.org/TR/2001/REC-SVG-20010904/DTD/svg10.dtd'>
<svg style="fill-opacity:1; color-rendering:auto; color-interpolation:auto; text-rendering:auto; stroke:black; stroke-linecap:square; stroke-miterlimit:10; shape-rendering:auto; stroke-opacity:1; fill:black; stroke-dasharray:none; font-weight:normal; stroke-width:1; font-family:&apos;Dialog&apos;; font-style:normal; stroke-linejoin:miter; font-size:12; stroke-dashoffset:0; image-rendering:auto;" xmlns="http://www.w3.org/2000/svg" width="644" xmlns:xlink="http://www.w3.org/1999/xlink" height="402">
  <!--Generated by the Batik Graphics2D SVG Generator-->
  <defs id="genericDefs" />
  <g>
    <defs id="defs1">
      <clipPath clipPathUnits="userSpaceOnUse" id="clipPath1">
        <path d="M0 0 L62 0 L62 21 L0 21 L0 0 Z" />
      </clipPath>
      <clipPath clipPathUnits="userSpaceOnUse" id="clipPath2">
        <path d="M0 0 L61 0 L61 21 L0 21 L0 0 Z" />
      </clipPath>
      <clipPath clipPathUnits="userSpaceOnUse" id="clipPath3">
        <path d="M0 0 L67 0 L67 21 L0 21 L0 0 Z" />
      </clipPath>
    </defs>
    <g style="fill:white; stroke:white;">
      <rect x="0" y="0" width="644" style="stroke:none;" height="402" />
    </g>
    <g style="fill:rgb(64,128,64); fill-opacity:0.6; stroke-opacity:0.6; stroke:rgb(64,128,64);">
      <polygon style="stroke:none;" points=" 178 202 175 214 168 225 158 231 146 234 134 231 123 225 116 214 114 202 116 190 123 180 134 173 146 170 158 173 168 180 175 190" />
    </g>
    <g style="fill:blue; stroke:blue;">
      <polygon style="fill:none;" points=" 178 202 175 214 168 225 158 231 146 234 134 231 123 225 116 214 114 202 116 190 123 180 134 173 146 170 158 173 168 180 175 190" />
    </g>
    <g style="fill:rgb(0,64,64); fill-opacity:0.6; stroke-opacity:0.6; stroke:rgb(0,64,64);">
      <polygon style="stroke:none;" points=" 197 243 195 255 188 265 177 272 165 275 153 272 143 265 136 255 134 243 136 231 143 220 153 214 165 211 177 214 188 220 195 231" />
    </g>
    <g style="fill:blue; stroke:blue;">
      <polygon style="fill:none;" points=" 197 243 195 255 188 265 177 272 165 275 153 272 143 265 136 255 134 243 136 231 143 220 153 214 165 211 177 214 188 220 195 231" />
    </g>
    <g style="fill:rgb(191,0,64); fill-opacity:0.6; stroke-opacity:0.6; stroke:rgb(191,0,64);">
      <polygon style="stroke:none;" points=" 240 256 238 268 231 278 221 285 209 288 196 285 186 278 179 268 177 256 179 244 186 233 196 226 209 224 221 226 231 233 238 244" />
    </g>
    <g style="fill:blue; stroke:blue;">
      <polygon style="fill:none;" points=" 240 256 238 268 231 278 221 285 209 288 196 285 186 278 179 268 177 256 179 244 186 233 196 226 209 224 221 226 231 233 238 244" />
    </g>
    <g style="fill:rgb(128,191,0); fill-opacity:0.6; stroke-opacity:0.6; stroke:rgb(128,191,0);">
      <polygon style="stroke:none;" points=" 279 232 276 244 269 254 259 261 247 264 235 261 224 254 218 244 215 232 218 220 224 209 235 202 247 200 259 202 269 209 276 220" />
    </g>
    <g style="fill:blue; stroke:blue;">
      <polygon style="fill:none;" points=" 279 232 276 244 269 254 259 261 247 264 235 261 224 254 218 244 215 232 218 220 224 209 235 202 247 200 259 202 269 209 276 220" />
    </g>
    <g style="fill:rgb(0,64,0); fill-opacity:0.902; stroke-opacity:0.902; stroke:rgb(0,64,0);">
      <polygon style="stroke:none;" points=" 242 201 239 217 230 230 217 239 201 242 185 239 172 230 163 217 160 201 163 185 172 172 185 163 201 160 217 163 230 172 239 185" />
    </g>
    <g style="fill:rgb(0,230,230); stroke:rgb(0,230,230);">
      <polygon style="fill:none;" points=" 242 201 239 217 230 230 217 239 201 242 185 239 172 230 163 217 160 201 163 185 172 172 185 163 201 160 217 163 230 172 239 185" />
      <polygon style="fill:none; stroke:lime;" points=" 136 232 136 231 143 220 153 214 165 211 175 213 175 214 168 225 158 231 146 234" />
      <polygon style="fill:none; stroke:lime;" points=" 181 270 179 268 177 256 179 244 186 233 193 229 195 231 197 243 195 255 188 265" />
      <polygon style="fill:none; stroke:lime;" points=" 239 262 235 261 224 254 218 244 215 232 216 226 221 226 231 233 238 244 240 256" />
      <polygon style="fill:none; stroke:lime;" points=" 230 206 235 202 247 200 259 202 269 209 272 213 267 216 255 219 242 216 232 210" />
      <polygon style="fill:none; stroke:lime;" points=" 168 225 163 217 160 201 163 185 167 179 168 180 175 190 178 202 175 214" />
      <polygon style="fill:none; stroke:lime;" points=" 197 241 185 239 172 230 163 217 162 212 165 211 177 214 188 220 195 231" />
      <polygon style="fill:none; stroke:lime;" points=" 183 238 186 233 196 226 209 224 221 226 228 231 217 239 201 242 185 239" />
      <polygon style="fill:none; stroke:lime;" points=" 217 239 215 232 218 220 224 209 235 202 242 201 239 217 230 230 217 239" />
      <polygon style="fill:none; stroke:lime;" points=" 239 214 232 210 225 199 223 187 225 175 228 171 230 172 239 185 242 201" />
    </g>
    <g style="fill:rgb(204,204,204); fill-opacity:0.702; stroke-opacity:0.702; stroke:rgb(204,204,204);">
      <polygon style="stroke:none;" points=" 168 225 163 217 162 212 165 211 175 213 175 214" />
      <polygon style="stroke:none;" points=" 193 229 195 231 197 241 185 239 183 238 186 233" />
      <polygon style="stroke:none;" points=" 216 226 221 226 228 231 217 239 217 239 215 232" />
      <polygon style="stroke:none;" points=" 230 206 235 202 242 201 239 214 232 210" />
    </g>
    <g style="fill:rgb(255,51,51); fill-opacity:0.4; stroke-opacity:0.4; stroke:rgb(255,51,51);">
      <polygon style="stroke:none;" points=" 286 187 284 199 277 210 267 216 255 219 242 216 232 210 225 199 223 187 225 175 232 165 242 158 255 155 267 158 277 165 284 175" />
    </g>
    <g style="fill:rgb(255,200,0); stroke:rgb(255,200,0);">
      <polygon style="fill:none;" points=" 286 187 284 199 277 210 267 216 255 219 242 216 232 210 225 199 223 187 225 175 232 165 242 158 255 155 267 158 277 165 284 175" />
    </g>
    <g style="fill:rgb(255,255,153); fill-opacity:0.502; stroke-opacity:0.502; stroke:rgb(255,255,153);">
      <polygon style="stroke:none;" points=" 286 187 284 199 277 210 267 216 255 219 242 216 232 210 225 199 223 187 225 175 232 165 242 158 255 155 267 158 277 165 284 175" />
    </g>
    <g style="fill:fuchsia; stroke:fuchsia;">
      <polygon style="fill:none;" points=" 286 187 284 199 277 210 267 216 255 219 242 216 232 210 225 199 223 187 225 175 232 165 242 158 255 155 267 158 277 165 284 175" />
      <text x="10" y="20" style="fill:blue; stroke:none;" xml:space="preserve">cost: 2,496</text>
      <line x1="202" x2="202" y1="160" style="fill:none; stroke:blue;" y2="94" />
      <line x1="115" x2="94" y1="209" style="fill:none; stroke:blue;" y2="214" />
      <line x1="145" x2="125" y1="267" style="fill:none; stroke:blue;" y2="292" />
      <line x1="216" x2="224" y1="286" style="fill:none; stroke:blue;" y2="316" />
      <line x1="276" x2="310" y1="244" style="fill:none; stroke:blue;" y2="257" />
      <line x1="283" x2="317" y1="173" style="fill:none; stroke:blue;" y2="157" />
    </g>
    <g transform="translate(308,136)" style="fill-opacity:0.6275; fill:rgb(255,255,85); font-family:sans-serif; stroke:rgb(255,255,85); font-weight:bold; stroke-opacity:0.6275;">
      <rect x="0" y="0" width="62" style="clip-path:url(#clipPath1); stroke:none;" height="21" />
    </g>
    <g transform="translate(308,136)" style="fill:blue; font-family:sans-serif; font-weight:bold; stroke:blue;">
      <text x="11" y="15" style="clip-path:url(#clipPath1); stroke:none;" xml:space="preserve">{ A } : 6</text>
    </g>
    <g transform="translate(308,136)" style="fill:olive; font-family:sans-serif; font-weight:bold; stroke:olive;">
      <rect x="0" y="0" width="61" style="clip-path:url(#clipPath1); fill:none;" height="20" />
    </g>
    <g transform="translate(305,257)" style="fill-opacity:0.6275; fill:rgb(255,255,85); font-family:sans-serif; stroke:rgb(255,255,85); font-weight:bold; stroke-opacity:0.6275;">
      <rect x="0" y="0" width="62" style="clip-path:url(#clipPath1); stroke:none;" height="21" />
    </g>
    <g transform="translate(305,257)" style="fill:blue; font-family:sans-serif; font-weight:bold; stroke:blue;">
      <text x="11" y="15" style="clip-path:url(#clipPath1); stroke:none;" xml:space="preserve">{ B } : 6</text>
    </g>
    <g transform="translate(305,257)" style="fill:olive; font-family:sans-serif; font-weight:bold; stroke:olive;">
      <rect x="0" y="0" width="61" style="clip-path:url(#clipPath1); fill:none;" height="20" />
    </g>
    <g transform="translate(196,316)" style="fill-opacity:0.6275; fill:rgb(255,255,85); font-family:sans-serif; stroke:rgb(255,255,85); font-weight:bold; stroke-opacity:0.6275;">
      <rect x="0" y="0" width="62" style="clip-path:url(#clipPath1); stroke:none;" height="21" />
    </g>
    <g transform="translate(196,316)" style="fill:blue; font-family:sans-serif; font-weight:bold; stroke:blue;">
      <text x="11" y="15" style="clip-path:url(#clipPath1); stroke:none;" xml:space="preserve">{ C } : 6</text>
    </g>
    <g transform="translate(196,316)" style="fill:olive; font-family:sans-serif; font-weight:bold; stroke:olive;">
      <rect x="0" y="0" width="61" style="clip-path:url(#clipPath1); fill:none;" height="20" />
    </g>
    <g transform="translate(85,292)" style="fill-opacity:0.6275; fill:rgb(255,255,85); font-family:sans-serif; stroke:rgb(255,255,85); font-weight:bold; stroke-opacity:0.6275;">
      <rect x="0" y="0" width="62" style="clip-path:url(#clipPath1); stroke:none;" height="21" />
    </g>
    <g transform="translate(85,292)" style="fill:blue; font-family:sans-serif; font-weight:bold; stroke:blue;">
      <text x="11" y="15" style="clip-path:url(#clipPath1); stroke:none;" xml:space="preserve">{ D } : 6</text>
    </g>
    <g transform="translate(85,292)" style="fill:olive; font-family:sans-serif; font-weight:bold; stroke:olive;">
      <rect x="0" y="0" width="61" style="clip-path:url(#clipPath1); fill:none;" height="20" />
    </g>
    <g transform="translate(33,210)" style="fill-opacity:0.6275; fill:rgb(255,255,85); font-family:sans-serif; stroke:rgb(255,255,85); font-weight:bold; stroke-opacity:0.6275;">
      <rect x="0" y="0" width="61" style="clip-path:url(#clipPath2); stroke:none;" height="21" />
    </g>
    <g transform="translate(33,210)" style="fill:blue; font-family:sans-serif; font-weight:bold; stroke:blue;">
      <text x="11" y="15" style="clip-path:url(#clipPath2); stroke:none;" xml:space="preserve">{ E } : 6</text>
    </g>
    <g transform="translate(33,210)" style="fill:olive; font-family:sans-serif; font-weight:bold; stroke:olive;">
      <rect x="0" y="0" width="60" style="clip-path:url(#clipPath2); fill:none;" height="20" />
    </g>
    <g transform="translate(169,73)" style="fill-opacity:0.6275; fill:rgb(255,255,85); font-family:sans-serif; stroke:rgb(255,255,85); font-weight:bold; stroke-opacity:0.6275;">
      <rect x="0" y="0" width="67" style="clip-path:url(#clipPath3); stroke:none;" height="21" />
    </g>
    <g transform="translate(169,73)" style="fill:blue; font-family:sans-serif; font-weight:bold; stroke:blue;">
      <text x="11" y="15" style="clip-path:url(#clipPath3); stroke:none;" xml:space="preserve">{ F } : 10</text>
    </g>
    <g transform="translate(169,73)" style="fill:olive; font-family:sans-serif; font-weight:bold; stroke:olive;">
      <rect x="0" y="0" width="66" style="clip-path:url(#clipPath3); fill:none;" height="20" />
    </g>
  </g>
</svg>
