<?xml version="1.0" encoding="UTF-8"?>

<!DOCTYPE svg PUBLIC '-//W3C//DTD SVG 1.0//EN' 'http://www.w3.org/TR/2001/REC-SVG-20010904/DTD/svg10.dtd'>
<svg style="fill-opacity:1; color-rendering:auto; color-interpolation:auto; text-rendering:auto; stroke:black; stroke-linecap:square; stroke-miterlimit:10; shape-rendering:auto; stroke-opacity:1; fill:black; stroke-dasharray:none; font-weight:normal; stroke-width:1; font-family:&apos;Dialog&apos;; font-style:normal; stroke-linejoin:miter; font-size:12; stroke-dashoffset:0; image-rendering:auto;" xmlns="http://www.w3.org/2000/svg" width="644" xmlns:xlink="http://www.w3.org/1999/xlink" height="402">
  <!--Generated by the Batik Graphics2D SVG Generator-->
  <defs id="genericDefs" />
  <g>
    <g style="fill:white; stroke:white;">
      <rect x="0" y="0" width="644" style="stroke:none;" height="402" />
    </g>
    <g style="fill:rgb(64,128,64); fill-opacity:0.6; stroke-opacity:0.6; stroke:rgb(64,128,64);">
      <polygon style="stroke:none;" points=" 214 172 212 183 206 191 198 197 187 199 177 197 168 191 162 183 160 172 162 162 168 153 177 147 187 145 198 147 206 153 212 162" />
    </g>
    <g style="fill:blue; stroke:blue;">
      <polygon style="fill:none;" points=" 214 172 212 183 206 191 198 197 187 199 177 197 168 191 162 183 160 172 162 162 168 153 177 147 187 145 198 147 206 153 212 162" />
    </g>
    <g style="fill:rgb(0,64,64); fill-opacity:0.6; stroke-opacity:0.6; stroke:rgb(0,64,64);">
      <polygon style="stroke:none;" points=" 263 161 260 173 254 183 244 190 232 192 220 190 210 183 204 173 201 161 204 150 210 140 220 133 232 131 244 133 254 140 260 150" />
    </g>
    <g style="fill:blue; stroke:blue;">
      <polygon style="fill:none;" points=" 263 161 260 173 254 183 244 190 232 192 220 190 210 183 204 173 201 161 204 150 210 140 220 133 232 131 244 133 254 140 260 150" />
    </g>
    <g style="fill:rgb(191,0,64); fill-opacity:0.6; stroke-opacity:0.6; stroke:rgb(191,0,64);">
      <polygon style="stroke:none;" points=" 231 133 229 145 222 155 213 161 201 164 189 161 179 155 173 145 171 133 173 122 179 112 189 105 201 103 213 105 222 112 229 122" />
    </g>
    <g style="fill:blue; stroke:blue;">
      <polygon style="fill:none;" points=" 231 133 229 145 222 155 213 161 201 164 189 161 179 155 173 145 171 133 173 122 179 112 189 105 201 103 213 105 222 112 229 122" />
    </g>
    <g style="fill:rgb(128,191,0); fill-opacity:0.6; stroke-opacity:0.6; stroke:rgb(128,191,0);">
      <polygon style="stroke:none;" points=" 191 145 188 157 181 167 171 174 159 176 147 174 137 167 130 157 128 145 130 133 137 123 147 116 159 114 171 116 181 123 188 133" />
    </g>
    <g style="fill:blue; stroke:blue;">
      <polygon style="fill:none;" points=" 191 145 188 157 181 167 171 174 159 176 147 174 137 167 130 157 128 145 130 133 137 123 147 116 159 114 171 116 181 123 188 133" />
    </g>
    <g style="fill:rgb(64,128,0); fill-opacity:0.6; stroke-opacity:0.6; stroke:rgb(64,128,0);">
      <polygon style="stroke:none;" points=" 178 188 176 200 169 210 159 217 147 219 135 217 124 210 118 200 115 188 118 176 124 165 135 159 147 156 159 159 169 165 176 176" />
    </g>
    <g style="fill:blue; stroke:blue;">
      <polygon style="fill:none;" points=" 178 188 176 200 169 210 159 217 147 219 135 217 124 210 118 200 115 188 118 176 124 165 135 159 147 156 159 159 169 165 176 176" />
    </g>
    <g style="fill:rgb(0,64,0); fill-opacity:0.6; stroke-opacity:0.6; stroke:rgb(0,64,0);">
      <polygon style="stroke:none;" points=" 242 201 239 217 230 230 217 239 201 242 185 239 172 230 163 217 160 201 163 185 172 172 185 163 201 160 217 163 230 172 239 185" />
    </g>
    <g style="fill:blue; stroke:blue;">
      <polygon style="fill:none;" points=" 242 201 239 217 230 230 217 239 201 242 185 239 172 230 163 217 160 201 163 185 172 172 185 163 201 160 217 163 230 172 239 185" />
      <polygon style="fill:none; stroke:lime;" points=" 212 184 210 183 204 173 201 161 203 151 206 153 212 162 214 172 212 183" />
    </g>
    <g style="fill:rgb(204,204,204); fill-opacity:0.702; stroke-opacity:0.702; stroke:rgb(204,204,204);">
      <polygon style="stroke:none;" points=" 175 149 177 147 187 145 198 147 206 153 212 161 201 164 189 161 179 155" />
    </g>
    <g style="fill:lime; stroke:lime;">
      <polygon style="fill:none;" points=" 202 163 201 161 204 150 210 140 220 133 231 131 231 133 229 145 222 155 213 161" />
    </g>
    <g style="fill:rgb(204,204,204); fill-opacity:0.702; stroke-opacity:0.702; stroke:rgb(204,204,204);">
      <polygon style="stroke:none;" points=" 161 176 160 172 162 162 168 153 177 147 187 145 190 146 188 157 181 167 171 174" />
    </g>
    <g style="fill:lime; stroke:lime;">
      <polygon style="fill:none;" points=" 187 160 179 155 173 145 171 133 173 122 175 118 181 123 188 133 191 145 188 157" />
      <polygon style="fill:none;" points=" 176 197 168 191 162 183 160 172 162 162 163 161 169 165 176 176 178 188" />
      <polygon style="fill:none;" points=" 132 160 135 159 147 156 159 159 169 165 174 172 171 174 159 176 147 174 137 167" />
      <polygon style="fill:none;" points=" 164 184 172 172 185 163 201 160 212 162 214 172 212 183 206 191 198 197 187 199 177 197 168 191" />
      <polygon style="fill:none;" points=" 240 190 232 192 220 190 210 183 204 173 201 161 202 160 217 163 230 172 239 185" />
      <polygon style="fill:none;" points=" 192 162 201 160 210 162 201 164" />
      <polygon style="fill:none;" points=" 171 174 172 172 183 164 181 167 171 174" />
      <polygon style="fill:none;" points=" 163 214 160 201 163 185 172 172 173 171 176 176 178 188 176 200 169 210" />
    </g>
    <g style="fill:rgb(204,204,204); fill-opacity:0.702; stroke-opacity:0.702; stroke:rgb(204,204,204);">
      <polygon style="stroke:none;" points=" 203 151 206 153 212 161 202 163 201 161" />
      <polygon style="stroke:none;" points=" 175 149 177 147 187 145 190 146 188 157 187 160 179 155" />
      <polygon style="stroke:none;" points=" 163 161 169 165 174 172 171 174 161 176 160 172 162 162" />
      <polygon style="stroke:none;" points=" 212 184 210 183 204 173 201 161 202 160 212 162 214 172 212 183" />
      <polygon style="stroke:none;" points=" 192 162 201 160 210 162 201 164" />
      <polygon style="stroke:none;" points=" 202 160 210 162 202 163 201 161" />
      <polygon style="stroke:none;" points=" 171 174 172 172 183 164 181 167 171 174" />
      <polygon style="stroke:none;" points=" 164 184 172 172 173 171 176 176 178 188 176 197 168 191" />
      <polygon style="stroke:none;" points=" 171 174 172 172 173 171 174 172 171 174" />
      <polygon style="stroke:none;" points=" 202 160 210 162 202 163 201 161" />
      <polygon style="stroke:none;" points=" 171 174 172 172 173 171 174 172 171 174" />
    </g>
    <g style="fill:blue; stroke:blue;">
      <text xml:space="preserve" x="10" y="20" style="stroke:none;">cost: 20,127</text>
    </g>
  </g>
</svg>
