<?xml version="1.0" encoding="UTF-8"?>

<!DOCTYPE svg PUBLIC '-//W3C//DTD SVG 1.0//EN' 'http://www.w3.org/TR/2001/REC-SVG-20010904/DTD/svg10.dtd'>
<svg style="fill-opacity:1; color-rendering:auto; color-interpolation:auto; text-rendering:auto; stroke:black; stroke-linecap:square; stroke-miterlimit:10; shape-rendering:auto; stroke-opacity:1; fill:black; stroke-dasharray:none; font-weight:normal; stroke-width:1; font-family:&apos;Dialog&apos;; font-style:normal; stroke-linejoin:miter; font-size:12; stroke-dashoffset:0; image-rendering:auto;" xmlns="http://www.w3.org/2000/svg" width="532" xmlns:xlink="http://www.w3.org/1999/xlink" height="400">
  <!--Generated by the Batik Graphics2D SVG Generator-->
  <defs id="genericDefs" />
  <g>
    <g style="fill:white; stroke:white;">
      <rect x="0" y="0" width="532" style="stroke:none;" height="400" />
    </g>
    <g style="fill:rgb(64,128,64); fill-opacity:0.6; stroke-opacity:0.6; stroke:rgb(64,128,64);">
      <polygon style="stroke:none;" points=" 257 302 253 326 239 347 218 360 194 365 170 360 149 347 136 326 131 302 136 278 149 257 170 244 194 239 218 244 239 257 253 278" />
    </g>
    <g style="fill:blue; stroke:blue;">
      <polygon style="fill:none;" points=" 257 302 253 326 239 347 218 360 194 365 170 360 149 347 136 326 131 302 136 278 149 257 170 244 194 239 218 244 239 257 253 278" />
    </g>
    <g style="fill:rgb(0,64,64); fill-opacity:0.6; stroke-opacity:0.6; stroke:rgb(0,64,64);">
      <polygon style="stroke:none;" points=" 163 229 158 253 144 274 124 288 99 292 75 288 55 274 41 253 36 229 41 205 55 184 75 171 99 166 124 171 144 184 158 205" />
    </g>
    <g style="fill:blue; stroke:blue;">
      <polygon style="fill:none;" points=" 163 229 158 253 144 274 124 288 99 292 75 288 55 274 41 253 36 229 41 205 55 184 75 171 99 166 124 171 144 184 158 205" />
    </g>
    <g style="fill:rgb(191,0,64); fill-opacity:0.6; stroke-opacity:0.6; stroke:rgb(191,0,64);">
      <polygon style="stroke:none;" points=" 192 124 187 148 173 169 153 183 129 187 104 183 84 169 70 148 65 124 70 100 84 79 104 66 129 61 153 66 173 79 187 100" />
    </g>
    <g style="fill:blue; stroke:blue;">
      <polygon style="fill:none;" points=" 192 124 187 148 173 169 153 183 129 187 104 183 84 169 70 148 65 124 70 100 84 79 104 66 129 61 153 66 173 79 187 100" />
    </g>
    <g style="fill:rgb(128,191,0); fill-opacity:0.6; stroke-opacity:0.6; stroke:rgb(128,191,0);">
      <polygon style="stroke:none;" points=" 316 113 311 137 297 158 277 172 253 176 228 172 208 158 194 137 189 113 194 89 208 68 228 55 253 50 277 55 297 68 311 89" />
    </g>
    <g style="fill:blue; stroke:blue;">
      <polygon style="fill:none;" points=" 316 113 311 137 297 158 277 172 253 176 228 172 208 158 194 137 189 113 194 89 208 68 228 55 253 50 277 55 297 68 311 89" />
    </g>
    <g style="fill:rgb(64,128,0); fill-opacity:0.6; stroke-opacity:0.6; stroke:rgb(64,128,0);">
      <polygon style="stroke:none;" points=" 357 231 352 256 338 276 318 290 293 295 269 290 249 276 235 256 230 231 235 207 249 187 269 173 293 168 318 173 338 187 352 207" />
    </g>
    <g style="fill:blue; stroke:blue;">
      <polygon style="fill:none;" points=" 357 231 352 256 338 276 318 290 293 295 269 290 249 276 235 256 230 231 235 207 249 187 269 173 293 168 318 173 338 187 352 207" />
    </g>
    <g style="fill:rgb(0,64,0); fill-opacity:0.902; stroke-opacity:0.902; stroke:rgb(0,64,0);">
      <polygon style="stroke:none;" points=" 282 200 275 231 258 258 231 275 200 282 169 275 142 258 125 231 118 200 125 169 142 142 169 125 200 118 231 125 258 142 275 169" />
    </g>
    <g style="fill:rgb(0,230,230); stroke:rgb(0,230,230);">
      <polygon style="fill:none;" points=" 282 200 275 231 258 258 231 275 200 282 169 275 142 258 125 231 118 200 125 169 142 142 169 125 200 118 231 125 258 142 275 169" />
      <polygon style="fill:none; stroke:lime;" points=" 135 280 136 278 149 257 158 251 158 253 144 274" />
      <polygon style="fill:none; stroke:lime;" points=" 84 169 99 166 124 171 144 184 129 187 104 183" />
      <polygon style="fill:none; stroke:lime;" points=" 192 125 189 113 190 112 192 124" />
      <polygon style="fill:none; stroke:lime;" points=" 253 279 249 276 235 256 235 255 239 257 253 278" />
      <polygon style="fill:none; stroke:lime;" points=" 269 173 269 173 277 171 277 172" />
      <polygon style="fill:none; stroke:lime;" points=" 147 261 149 257 170 244 194 239 218 244 239 257 245 266 231 275 200 282 169 275" />
      <polygon style="fill:none; stroke:lime;" points=" 151 264 142 258 125 231 118 200 124 171 144 184 158 205 163 229 158 253" />
      <polygon style="fill:none; stroke:lime;" points=" 121 186 125 169 142 142 169 125 191 120 192 124 187 148 173 169 153 183 129 187" />
      <polygon style="fill:none; stroke:lime;" points=" 276 172 253 176 228 172 208 158 194 137 191 120 200 118 231 125 258 142 275 169" />
      <polygon style="fill:none; stroke:lime;" points=" 243 268 235 256 230 231 235 207 249 187 269 173 276 172 282 200 275 231 258 258" />
    </g>
    <g style="fill:rgb(204,204,204); fill-opacity:0.702; stroke-opacity:0.702; stroke:rgb(204,204,204);">
      <polygon style="stroke:none;" points=" 147 261 149 257 158 251 158 253 151 264" />
      <polygon style="stroke:none;" points=" 124 171 144 184 129 187 121 186" />
      <polygon style="stroke:none;" points=" 192 125 191 120 191 120 192 124" />
      <polygon style="stroke:none;" points=" 235 255 239 257 245 266 243 268 235 256" />
      <polygon style="stroke:none;" points=" 269 173 269 173 276 172 276 172" />
    </g>
    <g style="fill:blue; stroke:blue;">
      <text xml:space="preserve" x="10" y="20" style="stroke:none;">cost: 5,029</text>
    </g>
  </g>
</svg>
